# xmcd
#
# Track frame offsets: 
#        150
#        16854
#        32649
#        57921
#        75447
#        99577
#        117682
#        133147
#        148236
#        167248
#        186000
#        205116
#        225198
#        242423
#        257053
#        272554
#        290567
#        308190
#        325175
#        342663
#
# Disc length: 4777 seconds
#
# Revision: 0
# Processed by: cddbd v1.5.2PL0 Copyright (c) Steve Scherf et al.
# Submitted via: ExactAudioCopy v0.99pb5
#
DISCID=2012a714
DTITLE=Various Artist - The Best Hits Of 90's
DYEAR=2004
DGENRE=Eurodance
TTITLE0=E-type - Set the world on fire
TTITLE1=Ace of Bace - All what she wants
TTITLE2=Jessica Jay - Casablanca
TTITLE3=Imperio - Atlantis
TTITLE4=Loft - Wake the world
TTITLE5=Basic Element - Promise man
TTITLE6=Pandora - Trust me
TTITLE7=M.C. Sar vs. Dj Dee - Pump up the jam rap'98
TTITLE8=Melodie MC. - Give it up
TTITLE9=2 Brothers on the 4th Floor - I can't touch this
TTITLE10=MC Hammer - U'can't touch this
TTITLE11=Haddaway - What is love
TTITLE12=2 Unlimited - No limits
TTITLE13=Aqua - Barbie girl
TTITLE14=Army of Lovers - Lit de parade
TTITLE15=Dr. Alban - It's my life
TTITLE16=Frankie goes to hollywood - Relax
TTITLE17=Corona - Baby baby
TTITLE18=Los del rio - Macarena
TTITLE19=Heath Hunter - Revolution in paradise
EXTD=
EXTT0=
EXTT1=
EXTT2=
EXTT3=
EXTT4=
EXTT5=
EXTT6=
EXTT7=
EXTT8=
EXTT9=
EXTT10=
EXTT11=
EXTT12=
EXTT13=
EXTT14=
EXTT15=
EXTT16=
EXTT17=
EXTT18=
EXTT19=
PLAYORDER=
